<svg xmlns="http://www.w3.org/2000/svg" viewBox="0 0 640 460" role="img">
  <title>AI security</title>
  <defs>
    <linearGradient id="g" x1="0" y1="0" x2="1" y2="1">
      <stop offset="0" stop-color="#4dd7ff"/>
      <stop offset="1" stop-color="#8ee875"/>
    </linearGradient>
    <linearGradient id="o" x1="0" y1="0" x2="1" y2="1">
      <stop offset="0" stop-color="#ffb45c"/>
      <stop offset="1" stop-color="#ff6b7a"/>
    </linearGradient>
    <filter id="shadow" x="-20%" y="-20%" width="140%" height="140%">
      <feDropShadow dx="0" dy="18" stdDeviation="18" flood-color="#02050a" flood-opacity="0.35"/>
    </filter>
  </defs>
  <rect width="640" height="460" rx="34" fill="#101720"/>
  <path d="M60 380 C170 292 222 418 332 320 C428 234 472 292 580 206" fill="none" stroke="#243545" stroke-width="3" opacity="0.65"/>
  <rect x="222" y="112" width="196" height="196" rx="46" fill="#172331" stroke="url(#g)" stroke-width="8" filter="url(#shadow)"/>
  <g stroke="#4dd7ff" stroke-width="8" stroke-linecap="round"><path d="M320 112 V66"/><path d="M320 354 V308"/><path d="M222 210 H176"/><path d="M464 210 H418"/><path d="M250 140 L214 104"/><path d="M390 140 L426 104"/><path d="M250 280 L214 316"/><path d="M390 280 L426 316"/></g>
  <circle cx="286" cy="202" r="15" fill="#ffb45c"/><circle cx="354" cy="202" r="15" fill="#ffb45c"/><path d="M280 252 Q320 278 360 252" stroke="#8ee875" stroke-width="10" fill="none" stroke-linecap="round"/>
</svg>
