<svg xmlns="http://www.w3.org/2000/svg" viewBox="0 0 640 460" role="img">
  <title>Attacker types</title>
  <defs>
    <linearGradient id="mask" x1="0" y1="0" x2="1" y2="1">
      <stop offset="0" stop-color="#4dd7ff"/>
      <stop offset="1" stop-color="#ff6b7a"/>
    </linearGradient>
    <filter id="shadow" x="-20%" y="-20%" width="140%" height="140%">
      <feDropShadow dx="0" dy="16" stdDeviation="16" flood-color="#02050a" flood-opacity="0.4"/>
    </filter>
  </defs>
  <rect width="640" height="460" rx="34" fill="#101720"/>
  <path d="M72 374 C176 304 238 406 332 318 C426 232 492 294 568 214" fill="none" stroke="#263747" stroke-width="3" opacity="0.7"/>
  <g filter="url(#shadow)">
    <path d="M320 88 C406 88 476 154 476 238 C476 318 414 374 320 374 C226 374 164 318 164 238 C164 154 234 88 320 88 Z" fill="#172331" stroke="url(#mask)" stroke-width="8"/>
    <path d="M218 224 C242 168 398 168 422 224 C400 250 362 264 320 264 C278 264 240 250 218 224 Z" fill="#0b1119" stroke="#4dd7ff" stroke-width="8"/>
    <circle cx="274" cy="224" r="16" fill="#ffb45c"/>
    <circle cx="366" cy="224" r="16" fill="#ffb45c"/>
    <path d="M284 306 C308 322 332 322 356 306" fill="none" stroke="#ff6b7a" stroke-width="10" stroke-linecap="round"/>
    <path d="M220 140 L166 104 M420 140 L474 104 M176 326 L126 366 M464 326 L514 366" stroke="#8ee875" stroke-width="9" stroke-linecap="round"/>
  </g>
  <g fill="#172331" stroke="#ffb45c" stroke-width="6">
    <circle cx="126" cy="102" r="22"/>
    <circle cx="514" cy="102" r="22"/>
    <circle cx="126" cy="366" r="22"/>
    <circle cx="514" cy="366" r="22"/>
  </g>
</svg>
