<svg xmlns="http://www.w3.org/2000/svg" viewBox="0 0 640 460" role="img">
  <title>Best practices checklist</title>
  <defs>
    <linearGradient id="g" x1="0" y1="0" x2="1" y2="1">
      <stop offset="0" stop-color="#4dd7ff"/>
      <stop offset="1" stop-color="#8ee875"/>
    </linearGradient>
    <linearGradient id="o" x1="0" y1="0" x2="1" y2="1">
      <stop offset="0" stop-color="#ffb45c"/>
      <stop offset="1" stop-color="#ff6b7a"/>
    </linearGradient>
    <filter id="shadow" x="-20%" y="-20%" width="140%" height="140%">
      <feDropShadow dx="0" dy="18" stdDeviation="18" flood-color="#02050a" flood-opacity="0.35"/>
    </filter>
  </defs>
  <rect width="640" height="460" rx="34" fill="#101720"/>
  <path d="M60 380 C170 292 222 418 332 320 C428 234 472 292 580 206" fill="none" stroke="#243545" stroke-width="3" opacity="0.65"/>
  <rect x="184" y="78" width="272" height="314" rx="26" fill="#172331" stroke="url(#g)" stroke-width="8" filter="url(#shadow)"/>
  <g stroke-linecap="round" stroke-linejoin="round" stroke-width="10"><path d="M232 160 L254 182 L294 136" stroke="#8ee875" fill="none"/><path d="M232 238 L254 260 L294 214" stroke="#8ee875" fill="none"/><path d="M232 316 L254 338 L294 292" stroke="#8ee875" fill="none"/></g>
  <g stroke="#4dd7ff" stroke-width="10" stroke-linecap="round"><path d="M326 158 H406"/><path d="M326 236 H406"/><path d="M326 314 H406"/></g>
</svg>
