<svg xmlns="http://www.w3.org/2000/svg" viewBox="0 0 640 460" role="img">
  <title>Crimeware</title>
  <defs>
    <linearGradient id="money" x1="0" y1="0" x2="1" y2="1">
      <stop offset="0" stop-color="#8ee875"/>
      <stop offset="1" stop-color="#4dd7ff"/>
    </linearGradient>
    <linearGradient id="alert" x1="0" y1="0" x2="1" y2="1">
      <stop offset="0" stop-color="#ffb45c"/>
      <stop offset="1" stop-color="#ff4f6d"/>
    </linearGradient>
    <filter id="shadow" x="-20%" y="-20%" width="140%" height="140%">
      <feDropShadow dx="0" dy="18" stdDeviation="18" flood-color="#02050a" flood-opacity="0.42"/>
    </filter>
  </defs>
  <rect width="640" height="460" rx="34" fill="#101720"/>
  <path d="M76 380 C166 316 242 402 330 322 C428 232 486 294 568 214" fill="none" stroke="#263747" stroke-width="3" opacity="0.7"/>
  <g filter="url(#shadow)">
    <rect x="154" y="108" width="332" height="220" rx="28" fill="#172331" stroke="url(#alert)" stroke-width="8"/>
    <path d="M236 108 V88 C236 46 404 46 404 88 V108" fill="none" stroke="#4dd7ff" stroke-width="16" stroke-linecap="round"/>
    <circle cx="320" cy="220" r="64" fill="#101720" stroke="url(#money)" stroke-width="8"/>
    <path d="M322 170 V270" stroke="#8ee875" stroke-width="11" stroke-linecap="round"/>
    <path d="M292 194 H338 C366 194 366 224 328 224 H306 C270 224 270 256 306 256 H352" fill="none" stroke="#8ee875" stroke-width="11" stroke-linecap="round"/>
    <path d="M204 330 H436 L462 382 H178 Z" fill="#172331" stroke="#ffb45c" stroke-width="7"/>
    <path d="M242 356 H398" stroke="#ffb45c" stroke-width="9" stroke-linecap="round"/>
  </g>
  <g fill="#ff4f6d">
    <circle cx="180" cy="146" r="14"/>
    <circle cx="460" cy="146" r="14"/>
    <circle cx="180" cy="292" r="14"/>
    <circle cx="460" cy="292" r="14"/>
  </g>
</svg>
