<svg xmlns="http://www.w3.org/2000/svg" viewBox="0 0 640 460" role="img">
  <title>ICT impact</title>
  <defs>
    <linearGradient id="g" x1="0" y1="0" x2="1" y2="1">
      <stop offset="0" stop-color="#4dd7ff"/>
      <stop offset="1" stop-color="#8ee875"/>
    </linearGradient>
    <linearGradient id="o" x1="0" y1="0" x2="1" y2="1">
      <stop offset="0" stop-color="#ffb45c"/>
      <stop offset="1" stop-color="#ff6b7a"/>
    </linearGradient>
    <filter id="shadow" x="-20%" y="-20%" width="140%" height="140%">
      <feDropShadow dx="0" dy="18" stdDeviation="18" flood-color="#02050a" flood-opacity="0.35"/>
    </filter>
  </defs>
  <rect width="640" height="460" rx="34" fill="#101720"/>
  <path d="M60 380 C170 292 222 418 332 320 C428 234 472 292 580 206" fill="none" stroke="#243545" stroke-width="3" opacity="0.65"/>
  <circle cx="320" cy="230" r="86" fill="#172331" stroke="url(#g)" stroke-width="8" filter="url(#shadow)"/>
  <path d="M238 230 H402 M320 148 V312 M260 172 C304 204 336 204 380 172 M260 288 C304 256 336 256 380 288" stroke="#4dd7ff" stroke-width="8" fill="none" stroke-linecap="round"/>
  <circle cx="162" cy="166" r="34" fill="#ffb45c"/><circle cx="478" cy="166" r="34" fill="#8ee875"/><circle cx="320" cy="368" r="34" fill="#ff6b7a"/>
</svg>
