<svg xmlns="http://www.w3.org/2000/svg" viewBox="0 0 640 460" role="img">
  <title>Metaverse risks</title>
  <defs>
    <linearGradient id="g" x1="0" y1="0" x2="1" y2="1">
      <stop offset="0" stop-color="#4dd7ff"/>
      <stop offset="1" stop-color="#8ee875"/>
    </linearGradient>
    <linearGradient id="o" x1="0" y1="0" x2="1" y2="1">
      <stop offset="0" stop-color="#ffb45c"/>
      <stop offset="1" stop-color="#ff6b7a"/>
    </linearGradient>
    <filter id="shadow" x="-20%" y="-20%" width="140%" height="140%">
      <feDropShadow dx="0" dy="18" stdDeviation="18" flood-color="#02050a" flood-opacity="0.35"/>
    </filter>
  </defs>
  <rect width="640" height="460" rx="34" fill="#101720"/>
  <path d="M60 380 C170 292 222 418 332 320 C428 234 472 292 580 206" fill="none" stroke="#243545" stroke-width="3" opacity="0.65"/>
  <path d="M160 250 C160 156 226 108 320 108 C414 108 480 156 480 250 C480 318 440 358 382 358 H258 C200 358 160 318 160 250 Z" fill="#172331" stroke="url(#g)" stroke-width="8" filter="url(#shadow)"/>
  <circle cx="258" cy="238" r="44" fill="#101720" stroke="#4dd7ff" stroke-width="8"/><circle cx="382" cy="238" r="44" fill="#101720" stroke="#4dd7ff" stroke-width="8"/>
  <path d="M302 238 H338" stroke="#4dd7ff" stroke-width="8" stroke-linecap="round"/>
  <path d="M320 68 L340 108 H300 Z" fill="#ff6b7a"/><path d="M320 390 L340 358 H300 Z" fill="#ffb45c"/>
</svg>
