<svg xmlns="http://www.w3.org/2000/svg" viewBox="0 0 640 460" role="img">
  <title>Network threats</title>
  <defs>
    <linearGradient id="net" x1="0" y1="0" x2="1" y2="1">
      <stop offset="0" stop-color="#4dd7ff"/>
      <stop offset="1" stop-color="#8ee875"/>
    </linearGradient>
    <linearGradient id="attack" x1="0" y1="0" x2="1" y2="1">
      <stop offset="0" stop-color="#ffb45c"/>
      <stop offset="1" stop-color="#ff4f6d"/>
    </linearGradient>
    <filter id="shadow" x="-20%" y="-20%" width="140%" height="140%">
      <feDropShadow dx="0" dy="16" stdDeviation="16" flood-color="#02050a" flood-opacity="0.4"/>
    </filter>
  </defs>
  <rect width="640" height="460" rx="34" fill="#101720"/>
  <path d="M74 374 C174 302 242 406 336 318 C424 236 492 296 568 214" fill="none" stroke="#263747" stroke-width="3" opacity="0.7"/>
  <g stroke="url(#net)" stroke-width="8" stroke-linecap="round">
    <path d="M166 154 L320 226 L474 154"/>
    <path d="M166 306 L320 226 L474 306"/>
    <path d="M320 108 V226"/>
    <path d="M166 154 V306"/>
    <path d="M474 154 V306"/>
  </g>
  <g filter="url(#shadow)">
    <circle cx="320" cy="108" r="42" fill="#172331" stroke="#4dd7ff" stroke-width="7"/>
    <circle cx="166" cy="154" r="42" fill="#172331" stroke="#4dd7ff" stroke-width="7"/>
    <circle cx="474" cy="154" r="42" fill="#172331" stroke="#4dd7ff" stroke-width="7"/>
    <circle cx="166" cy="306" r="42" fill="#172331" stroke="#4dd7ff" stroke-width="7"/>
    <circle cx="474" cy="306" r="42" fill="#172331" stroke="#4dd7ff" stroke-width="7"/>
    <path d="M320 170 L382 226 L320 282 L258 226 Z" fill="#172331" stroke="url(#attack)" stroke-width="8"/>
    <path d="M292 226 H348 M320 198 V254" stroke="#ffb45c" stroke-width="11" stroke-linecap="round"/>
  </g>
  <path d="M118 362 C210 326 430 326 522 362" fill="none" stroke="#ff4f6d" stroke-width="9" stroke-linecap="round" stroke-dasharray="16 18"/>
</svg>
