<svg xmlns="http://www.w3.org/2000/svg" viewBox="0 0 640 460" role="img">
  <title>People in cybersecurity</title>
  <defs>
    <linearGradient id="person" x1="0" y1="0" x2="1" y2="1">
      <stop offset="0" stop-color="#4dd7ff"/>
      <stop offset="1" stop-color="#8ee875"/>
    </linearGradient>
    <filter id="shadow" x="-20%" y="-20%" width="140%" height="140%">
      <feDropShadow dx="0" dy="16" stdDeviation="16" flood-color="#02050a" flood-opacity="0.38"/>
    </filter>
  </defs>
  <rect width="640" height="460" rx="34" fill="#101720"/>
  <path d="M74 374 C174 302 242 406 336 318 C424 236 492 296 568 214" fill="none" stroke="#263747" stroke-width="3" opacity="0.7"/>
  <g filter="url(#shadow)">
    <circle cx="320" cy="132" r="58" fill="#172331" stroke="url(#person)" stroke-width="8"/>
    <path d="M222 376 C236 274 404 274 418 376 Z" fill="#172331" stroke="#4dd7ff" stroke-width="8"/>
    <circle cx="190" cy="228" r="46" fill="#172331" stroke="#ffb45c" stroke-width="7"/>
    <path d="M118 372 C130 298 250 298 262 372 Z" fill="#172331" stroke="#ffb45c" stroke-width="7"/>
    <circle cx="450" cy="228" r="46" fill="#172331" stroke="#ff6b7a" stroke-width="7"/>
    <path d="M378 372 C390 298 510 298 522 372 Z" fill="#172331" stroke="#ff6b7a" stroke-width="7"/>
  </g>
  <path d="M258 246 C292 278 348 278 382 246" fill="none" stroke="#8ee875" stroke-width="10" stroke-linecap="round"/>
  <path d="M270 344 L310 382 L386 292" fill="none" stroke="#8ee875" stroke-width="14" stroke-linecap="round" stroke-linejoin="round"/>
</svg>
