<svg xmlns="http://www.w3.org/2000/svg" viewBox="0 0 640 460" role="img">
  <title>Smart systems</title>
  <defs>
    <linearGradient id="g" x1="0" y1="0" x2="1" y2="1">
      <stop offset="0" stop-color="#4dd7ff"/>
      <stop offset="1" stop-color="#8ee875"/>
    </linearGradient>
    <linearGradient id="o" x1="0" y1="0" x2="1" y2="1">
      <stop offset="0" stop-color="#ffb45c"/>
      <stop offset="1" stop-color="#ff6b7a"/>
    </linearGradient>
    <filter id="shadow" x="-20%" y="-20%" width="140%" height="140%">
      <feDropShadow dx="0" dy="18" stdDeviation="18" flood-color="#02050a" flood-opacity="0.35"/>
    </filter>
  </defs>
  <rect width="640" height="460" rx="34" fill="#101720"/>
  <path d="M60 380 C170 292 222 418 332 320 C428 234 472 292 580 206" fill="none" stroke="#243545" stroke-width="3" opacity="0.65"/>
  <g fill="#172331" stroke="url(#g)" stroke-width="7" filter="url(#shadow)"><rect x="122" y="204" width="84" height="156" rx="10"/><rect x="248" y="142" width="92" height="218" rx="10"/><rect x="392" y="184" width="92" height="176" rx="10"/></g>
  <g fill="#4dd7ff"><rect x="146" y="234" width="18" height="18"/><rect x="146" y="278" width="18" height="18"/><rect x="282" y="178" width="18" height="18"/><rect x="282" y="226" width="18" height="18"/><rect x="426" y="218" width="18" height="18"/><rect x="426" y="266" width="18" height="18"/></g>
  <path d="M160 124 L320 84 L482 124" stroke="#ffb45c" stroke-width="10" fill="none" stroke-linecap="round"/>
</svg>
